<?xml version="1.0" encoding="UTF-8" standalone="no"?>
<!-- Created with Inkscape (http://www.inkscape.org/) -->

<svg
   xmlns:dc="http://purl.org/dc/elements/1.1/"
   xmlns:cc="http://creativecommons.org/ns#"
   xmlns:rdf="http://www.w3.org/1999/02/22-rdf-syntax-ns#"
   xmlns:svg="http://www.w3.org/2000/svg"
   xmlns="http://www.w3.org/2000/svg"
   xmlns:sodipodi="http://sodipodi.sourceforge.net/DTD/sodipodi-0.dtd"
   xmlns:inkscape="http://www.inkscape.org/namespaces/inkscape"
   width="127.96223mm"
   height="22.960381mm"
   viewBox="0 0 127.96223 22.960381"
   version="1.1"
   id="svg8"
   inkscape:version="0.92.1 unknown"
   sodipodi:docname="insimple.svg">
  <defs
     id="defs2" />
  <sodipodi:namedview
     id="base"
     pagecolor="#ffffff"
     bordercolor="#666666"
     borderopacity="1.0"
     inkscape:pageopacity="0.0"
     inkscape:pageshadow="2"
     inkscape:zoom="0.35"
     inkscape:cx="-352.46731"
     inkscape:cy="-182.32458"
     inkscape:document-units="mm"
     inkscape:current-layer="layer1"
     showgrid="false"
     inkscape:window-width="1366"
     inkscape:window-height="744"
     inkscape:window-x="0"
     inkscape:window-y="24"
     inkscape:window-maximized="1"
     fit-margin-top="0"
     fit-margin-left="0"
     fit-margin-right="0"
     fit-margin-bottom="0" />
  <metadata
     id="metadata5">
    <rdf:RDF>
      <cc:Work
         rdf:about="">
        <dc:format>image/svg+xml</dc:format>
        <dc:type
           rdf:resource="http://purl.org/dc/dcmitype/StillImage" />
        <dc:title></dc:title>
      </cc:Work>
    </rdf:RDF>
  </metadata>
  <g
     inkscape:label="レイヤー 1"
     inkscape:groupmode="layer"
     id="layer1"
     transform="translate(-41.852213,-138.1091)">
    <path
       style="color:#000000;display:inline;overflow:visible;visibility:visible;fill:#000000;fill-opacity:1;fill-rule:nonzero;stroke:none;stroke-width:0.28222224;marker:none;enable-background:accumulate"
       d="m 70.643232,138.1091 -3.314509,5.74024 h 19.54041 l 3.314002,-5.74024 z m 41.352508,0.71677 -9.52809,16.50286 -3.313997,5.74075 h 17.737407 l -3.314,-5.74075 h -4.48139 l 9.5281,-16.50286 z m -62.686087,5.02347 -1.6557,2.86958 h 6.62697 l 1.65727,-2.86958 z m 48.42804,0 -1.65571,2.86958 h 6.627007 l 1.65727,-2.86958 z m 24.247637,0 -1.6557,2.86958 h 6.62697 l 1.65727,-2.86958 z m 9.76117,0 -1.65573,2.86958 h 6.62699 10.72183 l -1.65573,-2.86958 h -7.40883 z m 21.90924,0 -1.6557,2.86958 h 6.627 6.62694 l -1.6557,-2.86958 h -3.314 z m -86.327017,1.43453 4.14239,7.17525 h 6.62854 4.626581 l 0.82836,1.43456 h 6.628541 l -4.142362,-7.17476 h -0.8284 -10.42675 l -0.828389,-1.43505 z m -20.50317,2.87063 -1.04541,1.81176 -1.44175,2.49286 1.24331,2.15284 -3.72949,6.45752 h 6.62598 l 1.04592,-1.8123 2.68664,-4.64522 -1.24485,-2.15284 2.48611,-4.30462 z m 10.76112,0 -3.314,5.74072 -4.141879,7.17426 h 6.628029 l 4.14188,-7.17426 h 2.21018 l 0.41393,0.71674 -3.72844,6.45752 h 4.41833 l 3.72846,-6.45752 -3.72846,-6.45746 z m 37.66695,0 -1.045409,1.81176 -1.441759,2.49286 1.243309,2.15284 -3.72949,6.45752 h 6.625979 l 1.045929,-1.8123 2.686628,-4.64522 -1.244876,-2.15284 2.486146,-4.30462 z m 24.247607,0 -1.04541,1.81176 -2.68667,4.6457 2.68667,4.64522 1.04596,1.8123 h 6.62592 l -3.72949,-6.45752 3.72949,-6.45746 z m 9.76118,0 -1.04542,1.81176 -2.68666,4.6457 2.68666,4.64522 1.04592,1.8123 h 6.62595 11.55073 l -3.31399,-5.74075 h -11.55228 l -0.41391,-0.71677 3.72945,-6.45746 z m 21.90923,0 -1.04541,1.81176 -2.68664,4.6457 2.68664,4.64522 1.04596,1.8123 h 12.45092 2.45876 l 1.04592,-1.8123 2.68666,-4.64522 -2.68666,-4.6457 -1.04541,-1.81176 h -6.62646 l 3.72949,6.45746 -0.41396,0.71677 h -8.28888 l -0.41392,-0.71677 3.72945,-6.45746 z m -80.528408,7.17474 -3.314509,5.74024 h 19.54041 l 3.314002,-5.74024 z"
       id="path2988-82-2-0-3-1-3-7-1-0-1-4-5-2-4-7-38-5-4-0-9-6-8-4-4-3"
       inkscape:connector-curvature="0" />
  </g>
</svg>
