<svg xmlns="http://www.w3.org/2000/svg" width="483.637" height="86.779" viewBox="0 0 127.96223 22.960381"><g fill="none" stroke="red" stroke-width=".529" stroke-linecap="round"><path d="M7.461 5.75h6.625l-1.65 2.858M4.985 10.047h6.625l-2.498 4.297 1.25 2.159-3.726 6.456M15.737 10.047h6.626l3.725 6.456-3.725 6.456M28.797.014h19.537L45.032 5.75M25.474 7.168h6.625l.847 1.44h11.24l4.148 7.175M28.797 17.223h19.537l-3.302 5.736M55.89 5.75h6.625l-1.65 2.858M80.147 5.75h6.625L85.1 8.608M89.905 5.75h14.033l1.651 2.858M111.812 5.75h9.927l1.672 2.858M127.962 16.503l-3.725-6.456h-6.625l3.725 6.456-.423.72h-8.276l-.424-.72 3.726-6.456h-6.625M87.407 10.047h6.625l-3.725 6.456.423.72h11.557l3.302 5.736M77.65 10.047h6.625l-3.726 6.456 3.726 6.456M70.156.713h6.626l-9.525 16.51h4.466l3.323 5.736M53.414 10.047h6.625l-2.498 4.297 1.25 2.159-3.726 6.456"/></g></svg>