<svg xmlns="http://www.w3.org/2000/svg" width="483.637" height="86.779" viewBox="0 0 127.96223 22.960381"><g color="#000" fill="none" stroke="red" stroke-width=".529" stroke-linecap="round"><path style="isolation:auto;mix-blend-mode:normal;marker:none" d="M4.973 10.045L2.486 14.35l1.243 2.153L0 22.96h6.626M15.734 10.045L8.28 22.96h6.628l4.141-7.174h2.21l.415.717-3.729 6.457h4.418M28.791 17.22l-3.314 5.74h19.54M25.477 7.175l4.142 7.175h11.255l.828 1.435h6.629M28.791 0l-3.314 5.74h19.54M53.401 10.045l-2.487 4.305 1.244 2.153-3.73 6.457h6.626M70.144.717L57.3 22.96H75.04M77.649 10.045l-3.732 6.458 3.733 6.457h6.625M87.41 10.045l-3.732 6.458 3.733 6.457h18.176M109.32 10.045l-3.733 6.458 3.733 6.457h14.91l3.732-6.457M111.804 5.74l-1.656 2.87h13.254M7.457 5.74L5.802 8.61h6.627M55.885 5.74L54.23 8.61h6.627M80.133 5.74l-1.656 2.87h6.627M89.894 5.74L88.24 8.61h17.348" overflow="visible"/></g></svg>