<svg xmlns="http://www.w3.org/2000/svg" width="1688.365" height="356.492" viewBox="0 0 446.71317 94.321907"><path style="line-height:normal;text-indent:0;text-align:start;text-decoration-line:none;text-decoration-style:solid;text-decoration-color:#000;text-transform:none;isolation:auto;mix-blend-mode:normal" d="M285.238 18.116v41.16H274.9l-7.149-9.68h-11.07v2.428l17.862 24.2h29.736V18.116zm28.565 0v14.52l13.082 17.724h-13.082v14.52h23.803l8.377 11.338h15.42v-3.34l-40.42-54.762zm13.132 0l34.467 46.693v-8.075L332.9 18.116zm11.924 0l22.543 30.53v-8.07l-16.585-22.46zm11.923 0l10.62 14.398v-8.088l-4.661-6.31zm-265.47.011v58.108h4.762V18.127zm9.518 0v58.108h4.762V18.127zm9.523 0v58.108h4.762V18.127zm9.518 0v58.108h19.04V50.403l19.041 25.832h19.041v-6.43l-38.081-51.677zm61.884 0v4.844l14.28 19.344V24.603l-4.782-6.476zm33.32 0l-.036.007h.036zm0 .007l42.818 58.102V18.134h-9.504l4.743 6.431V61.75L228.09 35.91V18.135zm-57.148 0V35.91l19.041 25.839V24.565l-4.743-6.43zm23.822 12.907v45.182h14.279V50.391zm33.32 19.357v25.825h19.04zm47.605 9.7v8.07l5.946 8.055h5.959z" fill="#fff" fill-opacity=".976"/></svg>