<svg xmlns="http://www.w3.org/2000/svg" width="483.637" height="86.779" viewBox="0 0 127.96223 22.960381"><path style="marker:none" d="M28.791 0l-3.314 5.74h19.54L48.33 0zm41.353.717L60.615 17.22l-3.314 5.74H75.04l-3.314-5.74h-4.482L76.772.717zM7.457 5.74L5.802 8.61h6.627l1.657-2.87zm48.428 0L54.23 8.61h6.627l1.657-2.87zm24.248 0l-1.656 2.87h6.627l1.658-2.87zm9.761 0L88.24 8.61h17.348l-1.655-2.87h-7.41zm21.91 0l-1.656 2.87h13.254l-1.656-2.87h-3.314zM25.477 7.175l4.142 7.175H40.874l.828 1.435h6.629L44.189 8.61H32.933l-.828-1.435zm-20.504 2.87l-1.045 1.812-1.442 2.493 1.243 2.153L0 22.96h6.626l1.046-1.812 2.687-4.645-1.245-2.153 2.486-4.305zm10.761 0l-3.314 5.741L8.28 22.96h6.628l4.141-7.174h2.21l.415.717-3.729 6.457h4.418l3.729-6.457-3.729-6.458zm37.667 0l-1.045 1.812-1.442 2.493 1.244 2.153-3.73 6.457h6.626l1.046-1.812 2.687-4.645-1.245-2.153 2.486-4.305zm24.248 0l-1.045 1.812-2.687 4.646 2.687 4.645 1.046 1.812h6.625l-3.729-6.457 3.73-6.458zm9.761 0l-1.045 1.812-2.687 4.646 2.687 4.645 1.046 1.812H105.587l-3.314-5.74H90.721l-.414-.717 3.73-6.458zm21.91 0l-1.046 1.812-2.687 4.646 2.687 4.645 1.046 1.812h14.91l1.046-1.812 2.686-4.645-2.686-4.646-1.046-1.812h-6.626l3.73 6.458-.415.717h-8.289l-.414-.717 3.73-6.458zM28.79 17.22l-3.314 5.74h19.54l3.314-5.74z" color="#000" overflow="visible"/></svg>