<svg xmlns="http://www.w3.org/2000/svg" width="483.637" height="86.779" viewBox="0 0 127.96224 22.960369"><path style="marker:none" d="M28.791 0l-3.314 5.74h19.54L48.33 0m12.284 17.22l-3.314 5.74H75.04l-3.314-5.74h-4.482L76.772.717h-6.628M12.429 8.61l1.657-2.87H7.457L5.802 8.61m56.712-2.87h-6.629L54.23 8.61h6.627m19.276-2.87l-1.656 2.87h6.627l1.658-2.87zm25.454 2.87l-1.655-2.87H89.894L88.24 8.61h6.627m23.566-2.87h-6.628l-1.656 2.87m6.627 0h6.627l-1.656-2.87M32.105 7.175h-6.628l4.142 7.175H40.874l.828 1.435h6.629M6.626 22.96l1.046-1.812 2.687-4.645-1.245-2.153 2.486-4.305m-6.627 0l-1.045 1.812-1.442 2.493 1.243 2.153L0 22.96m22.362-12.915h-6.628l-3.314 5.741L8.28 22.96h6.628l4.141-7.174h2.21l.415.717-3.729 6.457h4.418l3.729-6.457m26.265-4.646l-1.442 2.493 1.244 2.153-3.73 6.457h6.626m1.046-1.812l2.687-4.645-1.245-2.153 2.486-4.305m16.576 1.812l-2.687 4.646 2.687 4.645m1.046 1.812h6.625l-3.729-6.457 3.73-6.458h-6.627m27.938 12.915l-3.314-5.74H90.721l-.414-.717 3.73-6.458H87.41l-1.045 1.812-2.687 4.646 2.687 4.645m1.046 1.812h6.626m30.193-12.915h-6.626l3.73 6.458-.415.717h-8.289l-.414-.717 3.73-6.458h-6.627l-1.045 1.812m-2.687 4.646l2.687 4.645 1.046 1.812m12.45 0h2.46l1.046-1.812 2.686-4.645-2.686-4.646M28.79 17.22l-3.314 5.74h19.54l3.314-5.74" color="#000" overflow="visible" fill="none" stroke="#000" stroke-width=".282"/></svg>