<svg xmlns="http://www.w3.org/2000/svg" xmlns:xlink="http://www.w3.org/1999/xlink" width="210mm" height="297mm" viewBox="0 0 210 297"><g color="#000" image-rendering="optimizeSpeed"><path style="isolation:auto;mix-blend-mode:normal;marker:none" overflow="visible" fill="#b3b3b3" d="M-159.242-407.472h296.033v296.033h-296.033z"/><path style="isolation:auto;mix-blend-mode:normal;marker:none" overflow="visible" fill="#4d4d4d" d="M-230.579 186.204h158.75v127h-158.75z"/><path style="isolation:auto;mix-blend-mode:normal;marker:none" overflow="visible" fill="#333" d="M-236.601-9.351h158.75v127h-158.75z"/><g fill="gray" font-weight="400" font-family="FontAwesome" white-space="normal"><path d="M-197.523 231.355h1.78v6.143q4.406 2.016 8.277 4.525l-1.158 1.78q-3.645-2.778-7.119-4.525v9.853h-1.78zM-179.168 237.916q-2.155-1.962-4.76-3.43l1.115-1.49q2.337 1.136 4.92 3.29zm-4.61 8.492q9.896-1.705 14.12-11.043l1.383 1.233q-4.139 9.177-14.356 11.546zM-163.043 231.355h1.78v6.143q4.406 2.016 8.276 4.525l-1.157 1.78q-3.646-2.778-7.12-4.525v9.853h-1.78zM-144.688 237.916q-2.155-1.962-4.76-3.43l1.115-1.49q2.337 1.136 4.92 3.29zm-4.61 8.492q9.895-1.705 14.12-11.043l1.383 1.233q-4.139 9.177-14.356 11.546zM-163.52 250.514h1.759v4.406h6.872V255.842q0 7.173-.793 10.035-.558 2.005-2.477 2.005-1.747 0-3.602-.879l-.065-1.919q2.166.997 3.335.997.975 0 1.211-1.104.536-2.455.633-8.48h-5.243q-.632 7.987-7.033 11.557l-1.34-1.362q6.004-2.991 6.636-10.11h-6.132v-1.576h6.24zM-151.34 265.877q8.695-3.516 10.668-14.023l1.919.525q-2.477 10.947-11.247 14.946zM-128.954 255.5q-2.09-1.802-4.17-2.842l1.029-1.447q2.026.997 4.31 2.744zm-5.715 10.399q9.542-2.037 14.324-10.378l1.2 1.361q-4.77 8.33-14.42 10.732zm13.22-11.322q-.815-1.715-2.08-3.077l1.2-.793q1.19 1.158 2.177 2.97zm-10.1 5.221q-2.08-1.78-4.256-2.851l1.03-1.47q2.315 1.116 4.374 2.788zm12.362-6.658q-.911-1.726-2.123-3.001l1.222-.751q1.148 1.115 2.22 2.906zM-115.263 255.692h10.378v11.9h-1.65v-1.007h-8.975v-1.576h8.974v-3.367h-8.245v-1.49h8.245v-2.948h-8.727z" style="line-height:47.9867897px;-inkscape-font-specification:FontAwesome;font-variant-ligatures:normal;font-variant-position:normal;font-variant-caps:normal;font-variant-numeric:normal;font-variant-alternates:normal;font-feature-settings:normal;text-indent:0;text-align:start;text-decoration-line:none;text-decoration-style:solid;text-decoration-color:#000;text-transform:none;text-orientation:mixed;shape-padding:0;isolation:auto;mix-blend-mode:normal;marker:none"/></g><text style="line-height:105.470047px;-inkscape-font-specification:FontAwesome;font-variant-ligatures:normal;font-variant-position:normal;font-variant-caps:normal;font-variant-numeric:normal;font-variant-alternates:normal;font-feature-settings:normal;text-indent:0;text-align:start;text-decoration-line:none;text-decoration-style:solid;text-decoration-color:#000;text-transform:none;text-orientation:mixed;shape-padding:0;isolation:auto;mix-blend-mode:normal;marker:none" x="65.547" y="157.606" font-weight="400" font-size="51.752" font-family="FontAwesome" white-space="normal" overflow="visible" fill="#d40000" stroke-width="8.676"><tspan x="65.547" y="157.606">勝ち</tspan></text><text style="line-height:105.470047px;-inkscape-font-specification:FontAwesome;font-variant-ligatures:normal;font-variant-position:normal;font-variant-caps:normal;font-variant-numeric:normal;font-variant-alternates:normal;font-feature-settings:normal;text-indent:0;text-align:start;text-decoration-line:none;text-decoration-style:solid;text-decoration-color:#000;text-transform:none;text-orientation:mixed;shape-padding:0;isolation:auto;mix-blend-mode:normal;marker:none" x="-206.855" y="73.568" font-weight="400" font-size="51.752" font-family="FontAwesome" white-space="normal" overflow="visible" fill="#fff" stroke-width="8.676"><tspan x="-206.855" y="73.568" style="line-height:105.470047px;-inkscape-font-specification:FontAwesome;font-variant-ligatures:normal;font-variant-position:normal;font-variant-caps:normal;font-variant-numeric:normal;font-variant-alternates:normal;font-feature-settings:normal;text-indent:0;text-align:start;text-decoration-line:none;text-decoration-style:solid;text-decoration-color:#000;text-transform:none;text-orientation:mixed;shape-padding:0;marker:none">負け</tspan></text><path style="isolation:auto;mix-blend-mode:normal;marker:none" d="M88.734-259.455a99.959 99.959 0 0 1-99.96 99.959 99.959 99.959 0 0 1-99.958-99.96 99.959 99.959 0 0 1 99.959-99.958 99.959 99.959 0 0 1 99.959 99.959z" overflow="visible" fill="none" stroke="#000" stroke-width=".529"/><path style="isolation:auto;mix-blend-mode:normal;marker:none" overflow="visible" fill="none" stroke="#000" stroke-width=".572" d="M-111.163-359.393H88.712v199.875h-199.875z"/><path style="isolation:auto;mix-blend-mode:normal;marker:none" overflow="visible" fill="none" stroke="#000" stroke-width=".572" d="M-11.225-400.787l141.333 141.333-141.333 141.333-141.333-141.333z"/><path style="isolation:auto;mix-blend-mode:normal;marker:none" d="M408.26-152.897H208.598l99.83-172.911z" overflow="visible" fill="none" stroke="#000" stroke-width=".454"/><path style="isolation:auto;mix-blend-mode:normal;marker:none" d="M308.429-325.808v115.274M408.26-152.897l-99.831-57.637M208.599-152.897l99.83-57.637" overflow="visible" fill="none" stroke="#000" stroke-width=".572"/><path style="isolation:auto;mix-blend-mode:normal;marker:none" d="M715.176-46.578H515.515l99.83-172.911z" overflow="visible" fill="none" stroke="#000" stroke-width=".454"/><path style="isolation:auto;mix-blend-mode:normal;marker:none" d="M615.345-219.49v115.275M715.176-46.578l-99.83-57.637M515.515-46.578l99.83-57.637" overflow="visible" fill="none" stroke="#000" stroke-width=".572"/><g fill="none" stroke="#000"><path d="M715.176-161.852H515.515l99.83 172.91z" style="isolation:auto;mix-blend-mode:normal;marker:none" overflow="visible" stroke-width=".454"/><path d="M615.345 11.059v-115.274M715.176-161.852l-99.83 57.637M515.515-161.852l99.83 57.637" style="isolation:auto;mix-blend-mode:normal;marker:none" overflow="visible" stroke-width=".572"/></g><path style="isolation:auto;mix-blend-mode:normal;marker:none" d="M88.605-201.818h-199.66l99.83-172.911z" overflow="visible" fill="none" stroke="#000" stroke-width=".454"/><path style="isolation:auto;mix-blend-mode:normal;marker:none" d="M-11.225-374.73v115.275M88.605-201.818l-99.83-57.637M-111.056-201.818l99.83-57.637" overflow="visible" fill="none" stroke="#000" stroke-width=".572"/><g fill="none" stroke="#000"><path d="M88.605-317.092h-199.66l99.83 172.911z" style="isolation:auto;mix-blend-mode:normal;marker:none" overflow="visible" stroke-width=".454"/><path d="M-11.225-144.181v-115.274M88.605-317.092l-99.83 57.637M-111.056-317.092l99.83 57.637" style="isolation:auto;mix-blend-mode:normal;marker:none" overflow="visible" stroke-width=".572"/></g><path style="isolation:auto;mix-blend-mode:normal;marker:none" overflow="visible" fill="none" stroke="#000" stroke-width=".572" d="M59.442-381.853l51.731 193.064-193.064 51.732-51.732-193.064z"/><path style="isolation:auto;mix-blend-mode:normal;marker:none" overflow="visible" fill="none" stroke="#000" stroke-width=".572" d="M111.173-330.122L59.442-137.058l-193.065-51.731 51.732-193.064z"/><path style="isolation:auto;mix-blend-mode:normal;marker:none" overflow="visible" fill="none" stroke="#000" stroke-width=".572" d="M125.292-222.876l-173.097 99.938-99.937-173.097 173.097-99.938z"/><path style="isolation:auto;mix-blend-mode:normal;marker:none" overflow="visible" fill="none" stroke="#000" stroke-width=".572" d="M125.292-296.035L25.354-122.94l-173.097-99.937 99.938-173.097z"/><path style="isolation:auto;mix-blend-mode:normal;marker:none" d="M-258.914-347.523l18.24 36.957 40.785 5.927-29.513 28.767 6.967 40.62-36.479-19.178-36.479 19.178 6.967-40.62-29.512-28.767 40.785-5.927z" overflow="visible" fill="#fff" stroke="#000" stroke-width=".529"/><text style="line-height:105.470047px;-inkscape-font-specification:FontAwesome;font-variant-ligatures:normal;font-variant-position:normal;font-variant-caps:normal;font-variant-numeric:normal;font-variant-alternates:normal;font-feature-settings:normal;text-indent:0;text-align:start;text-decoration-line:none;text-decoration-style:solid;text-decoration-color:#000;text-transform:none;text-orientation:mixed;shape-padding:0;isolation:auto;mix-blend-mode:normal;marker:none" x="-199.571" y="-347.071" font-weight="400" font-size="51.752" font-family="FontAwesome" white-space="normal" overflow="visible" fill="#fff" stroke="#000" stroke-width=".529"/><path style="isolation:auto;mix-blend-mode:normal;marker:none" d="M-11.225-331.736c-39.92 0-72.28 32.361-72.28 72.28 0 39.92 32.36 72.281 72.28 72.281s72.28-32.361 72.28-72.28c0-39.92-32.36-72.28-72.28-72.28zm0-15.722c48.602 0 88.002 39.4 88.002 88.002 0 48.603-39.4 88.003-88.002 88.003-48.603 0-88.003-39.4-88.003-88.003 0-48.602 39.4-88.002 88.003-88.002z" id="a" overflow="visible" fill="#fff" stroke="#000" stroke-width=".853"/><text style="line-height:105.470047px;-inkscape-font-specification:'URW Chancery L';font-variant-ligatures:normal;font-variant-position:normal;font-variant-caps:normal;font-variant-numeric:normal;font-variant-alternates:normal;font-feature-settings:normal;text-indent:0;text-align:start;text-decoration-line:none;text-decoration-style:solid;text-decoration-color:#000;text-transform:none;text-orientation:mixed;shape-padding:0;isolation:auto;mix-blend-mode:normal;marker:none" x="29.4" y="-69.49" transform="matrix(.85187 0 0 .85187 -1.919 -38.587)" font-weight="400" font-size="19.756" font-family="URW Chancery L" white-space="normal" overflow="visible" stroke-width=".529"><textPath xlink:href="#a"><tspan>in voluptate velit esse cillum dolore eu fugiat nulla pariatur. Excepteur sint occaecat cupidatat non proident, sunt in culpa qui officia deserunt mollit anim id est la</tspan></textPath></text><path style="isolation:auto;mix-blend-mode:normal;marker:none" d="M-11.225-323.953c-35.621 0-64.498 28.877-64.498 64.498 0 35.62 28.877 64.497 64.498 64.497 35.62 0 64.497-28.876 64.497-64.497 0-35.621-28.876-64.497-64.497-64.498zm0 25.188c21.71 0 39.31 17.6 39.31 39.31s-17.6 39.31-39.31 39.31-39.311-17.6-39.31-39.31c0-21.711 17.6-39.31 39.31-39.31z" overflow="visible" fill="#fff" stroke="#000" stroke-width=".591"/><text style="line-height:105.470047px;-inkscape-font-specification:'URW Chancery L';font-variant-ligatures:normal;font-variant-position:normal;font-variant-caps:normal;font-variant-numeric:normal;font-variant-alternates:normal;font-feature-settings:normal;text-indent:0;text-align:start;text-decoration-line:none;text-decoration-style:solid;text-decoration-color:#000;text-transform:none;text-orientation:mixed;shape-padding:0;isolation:auto;mix-blend-mode:normal;marker:none" x="2.268" y="33.64" transform="matrix(.63446 0 0 .63446 -4.164 -94.548)" font-weight="400" font-size="14.111" font-family="URW Chancery L" white-space="normal" overflow="visible" stroke-width=".529"><textPath xlink:href="#a"><tspan style="-inkscape-font-specification:'URW Chancery L'">Lorem ipsum dolor sit amet, consectetur adipiscing elit, sed do eiusmod tempor incididunt ut labore et dolore magna aliqua. Ut enim ad minim veniam, quis nostrud exercitation ullamco laboris nisi ut aliquip</tspan></textPath></text></g></svg>