<svg xmlns="http://www.w3.org/2000/svg" width="1688.365" height="356.492" viewBox="0 0 446.71317 94.321907"><g color="#000" fill="none" stroke="#000" stroke-width=".529" image-rendering="optimizeSpeed"><path style="isolation:auto;mix-blend-mode:normal;marker:none" d="M0 18.139l446.713-.034M361.402.157v94.008M313.803.157v94.008M256.68.157v94.008M285.238.157v94.008M304.28.157v94.008M251.893.157v94.008M247.132.157v94.008M228.09.157v94.008M209.069.157v94.008M190.034.157v94.008M175.755.157v94.008M170.968.157v94.008M151.928.157v94.008M132.911.157v94.008M113.87.157v94.008M109.115.157v94.008M104.353.157v94.008M99.592.157v94.008M94.829.157v94.008M90.074.157v94.008M85.312.157v94.008M0 76.253l446.713-.033M119.669.157l69.276 94.008M152.977.157l69.277 94.008M172.019.157l69.277 94.008M195.79.157l69.277 94.008M229.14.157l69.277 94.008M218.458.157l69.277 94.008M212.502.157l69.276 94.008M206.555.157l69.277 94.008m14.1-94.008l69.276 94.008M231.318.157l69.278 94.008M307.748.157l69.277 94.008M313.701.157l69.276 94.008M319.665.157l69.277 94.008M325.624.157L394.9 94.165M331.582.157l69.277 94.008M337.547.157l69.277 94.008M343.506.157l69.277 94.008M201.743.157l69.277 94.008M95.884.157l69.277 94.008M125.579.157l69.277 94.008M158.943.157l69.276 94.008M0 49.595l446.713-.033M0 50.437l446.713-.034M0 59.277l446.713-.034M0 64.88l446.713-.035" overflow="visible"/></g></svg>