<svg xmlns="http://www.w3.org/2000/svg" xmlns:xlink="http://www.w3.org/1999/xlink" width="210mm" height="297mm" viewBox="0 0 210 297"><path style="isolation:auto;mix-blend-mode:normal;marker:none" d="M155.706 27.213L108.4 74.52l85.472-49.348-42.821 42.822 45.815 45.814M117.849 32.942l-89.58-20.788L-.836 40.88 108.4 74.52l-12.474 34.396s-44.223 27.97-46.113 27.97c-1.89 0-75.217-81.265-75.217-81.265l76.351 49.893" color="#000" overflow="visible" fill="none" stroke="#000" stroke-width="2.177" image-rendering="optimizeSpeed"/><path style="isolation:auto;mix-blend-mode:normal;marker:none" d="M97.896 162.44l-7.56-8.693-23.034-11.219-27.237 10.085 16.631 15.497 22.679 7.56" id="a" color="#000" overflow="visible" fill="none" stroke="#000" stroke-width="2.177" image-rendering="optimizeSpeed"/><use xlink:href="#a" transform="rotate(-180 68.036 171.89)" width="100%" height="100%"/><path style="isolation:auto;mix-blend-mode:normal;marker:none" d="M119.818 143.92L97.14 200.238l61.61-48.003M126.244 179.071l27.97 20.033" color="#000" overflow="visible" fill="none" stroke="#000" stroke-width="2.177" image-rendering="optimizeSpeed"/></svg>